<?xml version="1.0" encoding="utf-8"?>
<!-- Generator: Adobe Illustrator 16.0.0, SVG Export Plug-In . SVG Version: 6.00 Build 0)  -->
<!DOCTYPE svg PUBLIC "-//W3C//DTD SVG 1.1//EN" "http://www.w3.org/Graphics/SVG/1.1/DTD/svg11.dtd">
<svg version="1.1" id="Layer_1" xmlns="http://www.w3.org/2000/svg" xmlns:xlink="http://www.w3.org/1999/xlink" x="0px" y="0px"
	 width="113.9px" height="81.754px" viewBox="0 0 113.9 81.754" enable-background="new 0 0 113.9 81.754" xml:space="preserve">
<g>
	<defs>
		<rect id="SVGID_1_" y="0" width="113.9" height="81.754"/>
	</defs>
	<clipPath id="SVGID_2_">
		<use xlink:href="#SVGID_1_"  overflow="visible"/>
	</clipPath>
	<path clip-path="url(#SVGID_2_)" fill="#D9DADA" d="M3.539,34.72L49.549,2.27c2.289-1.615,5.342-2.36,8.417-2.261
		c3.066,0.099,6.179,1.035,8.597,2.785l43.286,31.33c1.136,0.822,2.03,1.762,2.678,2.764c0.817,1.264,1.238,2.619,1.257,3.963
		c0.021,1.36-0.367,2.696-1.164,3.903c-0.552,0.835-1.305,1.607-2.26,2.28l-46.01,32.451c-2.289,1.614-5.342,2.36-8.417,2.261
		c-3.067-0.099-6.18-1.035-8.597-2.785L4.05,47.63c-1.137-0.821-2.03-1.762-2.678-2.764c-0.817-1.264-1.238-2.62-1.258-3.963
		c-0.019-1.36,0.367-2.697,1.165-3.903C1.832,36.166,2.584,35.393,3.539,34.72z M4.455,36.133c-0.776,0.547-1.386,1.172-1.83,1.843
		c-0.6,0.907-0.89,1.9-0.876,2.902c0.015,1.018,0.341,2.056,0.973,3.035c0.533,0.824,1.286,1.61,2.259,2.314l43.286,31.33
		c2.15,1.556,4.942,2.39,7.708,2.479c2.759,0.089,5.467-0.558,7.461-1.964l46.01-32.45c0.776-0.548,1.385-1.172,1.829-1.844
		c0.6-0.907,0.891-1.9,0.876-2.901c-0.014-1.018-0.34-2.057-0.973-3.035c-0.532-0.824-1.286-1.61-2.259-2.314L65.634,4.198
		c-2.151-1.557-4.943-2.39-7.709-2.48c-2.758-0.089-5.467,0.559-7.46,1.965L4.455,36.133z"/>
	<path clip-path="url(#SVGID_2_)" fill="#E31E24" d="M73.213,68.277v0.793H60.611v-0.793c1.298,0,2.202-0.205,2.702-0.618
		c0.504-0.413,0.755-1.17,0.755-2.271V49.107c-0.633,0-1.35,0.06-2.145,0.172c-1.324,0.209-2.424,0.827-3.301,1.86
		c-0.875,1.031-1.31,2.136-1.31,3.305h-0.954V48.11h21.266v6.334h-0.916c0-1.758-0.63-3.086-1.886-3.988
		c-1.259-0.899-2.95-1.349-5.068-1.349v16.281c0,1.123,0.257,1.888,0.775,2.286C71.045,68.079,71.942,68.277,73.213,68.277z"/>
	<path clip-path="url(#SVGID_2_)" fill="#005AA5" d="M31.793,28.188l0.722-0.133l0.015,0.078l0.015,0.078l0.016,0.079l0.017,0.081
		l0.017,0.08l0.018,0.081l0.018,0.082l0.019,0.084l0.02,0.082l0.021,0.084l0.021,0.085l0.021,0.086l0.023,0.086l0.023,0.086
		l0.024,0.088l0.024,0.088l0.025,0.089l0.026,0.09l0.026,0.09l0.027,0.09l0.027,0.092l0.028,0.092l0.029,0.093l0.03,0.093
		l0.03,0.095l0.031,0.095l0.031,0.096l0.032,0.095l0.033,0.097l0.034,0.098l0.034,0.098l0.034,0.099l-0.692,0.245l-0.036-0.102
		l-0.035-0.101l-0.034-0.1l-0.034-0.099l-0.033-0.1l-0.032-0.098l-0.032-0.098l-0.031-0.097l-0.031-0.097l-0.029-0.096l-0.029-0.095
		l-0.029-0.094l-0.028-0.094l-0.027-0.094l-0.027-0.093l-0.026-0.092l-0.025-0.091l-0.025-0.091l-0.024-0.091l-0.023-0.089
		l-0.023-0.089l-0.022-0.089l-0.021-0.088l-0.021-0.088l-0.02-0.086l-0.019-0.086l-0.019-0.085l-0.018-0.085l-0.017-0.084
		l-0.017-0.084l-0.017-0.083L31.793,28.188z M32.515,28.055l-0.722,0.133L31.79,28.17l-0.002-0.019l-0.001-0.018v-0.019v-0.018
		l0.002-0.018l0.003-0.018l0.003-0.017l0.005-0.018l0.005-0.017l0.005-0.017l0.007-0.016l0.008-0.016l0.008-0.015l0.009-0.016
		l0.009-0.014l0.011-0.015l0.011-0.014l0.011-0.013l0.013-0.012l0.013-0.013l0.013-0.011l0.014-0.011l0.015-0.01l0.015-0.01
		l0.016-0.009l0.016-0.007l0.017-0.008l0.017-0.006l0.018-0.006l0.018-0.005l0.018-0.004l0.019-0.002l0.018-0.002l0.019-0.001
		l0.018-0.001l0.018,0.001l0.018,0.002l0.018,0.002l0.018,0.004l0.017,0.004l0.017,0.005l0.017,0.006l0.016,0.007l0.016,0.007
		l0.016,0.008l0.015,0.009l0.015,0.01l0.014,0.01l0.014,0.011l0.013,0.012l0.013,0.012l0.012,0.013l0.012,0.014l0.01,0.014
		l0.011,0.014l0.009,0.016l0.009,0.015l0.008,0.017l0.007,0.016l0.007,0.018l0.005,0.017l0.005,0.018L32.515,28.055z M31.55,25.33
		h0.734l0.001,0.093v0.092l0.001,0.091l0.002,0.091l0.002,0.091l0.003,0.09l0.003,0.09l0.003,0.09l0.004,0.088l0.004,0.088
		l0.005,0.088l0.005,0.088l0.006,0.086l0.006,0.086l0.006,0.087l0.007,0.085l0.008,0.085l0.007,0.084l0.009,0.084l0.009,0.084
		l0.009,0.082l0.01,0.083l0.01,0.082l0.01,0.082l0.012,0.081l0.011,0.08l0.012,0.08l0.012,0.08l0.013,0.079l0.013,0.078l0.014,0.079
		l0.014,0.078l-0.722,0.133l-0.015-0.082l-0.015-0.083l-0.014-0.083l-0.013-0.084l-0.013-0.084l-0.013-0.085l-0.012-0.085
		l-0.011-0.086l-0.012-0.086l-0.01-0.086l-0.011-0.087l-0.009-0.087l-0.009-0.088l-0.009-0.088l-0.009-0.089l-0.007-0.089
		l-0.008-0.09l-0.007-0.089l-0.006-0.091l-0.006-0.091l-0.005-0.091l-0.005-0.092l-0.005-0.092l-0.004-0.093l-0.003-0.093
		l-0.004-0.093l-0.002-0.094l-0.002-0.095l-0.002-0.095l-0.001-0.095l-0.001-0.096V25.33z M33.24,19.611l0.571,0.462l-0.093,0.118
		l-0.09,0.121l-0.087,0.123l-0.084,0.127l-0.081,0.129l-0.079,0.132l-0.075,0.136l-0.073,0.138l-0.07,0.141l-0.067,0.145
		l-0.064,0.147l-0.061,0.15l-0.058,0.153l-0.055,0.156l-0.053,0.16l-0.049,0.162l-0.047,0.165l-0.044,0.169l-0.04,0.172
		l-0.038,0.174l-0.035,0.178l-0.031,0.181l-0.029,0.184l-0.026,0.187l-0.023,0.191l-0.02,0.193l-0.016,0.196l-0.014,0.2
		l-0.011,0.203l-0.007,0.205l-0.005,0.209l-0.002,0.212H31.55l0.002-0.223l0.004-0.219l0.009-0.218l0.011-0.214l0.014-0.211
		l0.018-0.208l0.021-0.207l0.025-0.203l0.027-0.2l0.031-0.197l0.034-0.195l0.038-0.192l0.041-0.189l0.044-0.186l0.047-0.183
		l0.051-0.181l0.054-0.178l0.058-0.174l0.06-0.172l0.065-0.169l0.067-0.167l0.071-0.163l0.075-0.16l0.078-0.158l0.081-0.154
		l0.085-0.152l0.088-0.148l0.091-0.146l0.095-0.143l0.098-0.139l0.102-0.137L33.24,19.611z M33.811,20.073l-0.571-0.462l0.012-0.014
		l0.013-0.014l0.013-0.013l0.014-0.012l0.015-0.011l0.015-0.01l0.015-0.01l0.015-0.009l0.016-0.008l0.016-0.007l0.017-0.006
		l0.017-0.006l0.017-0.005l0.017-0.004l0.018-0.003l0.017-0.002l0.017-0.001l0.018-0.001h0.018l0.017,0.001l0.018,0.002l0.018,0.003
		l0.017,0.004l0.017,0.004l0.017,0.006l0.017,0.006l0.017,0.007l0.016,0.008l0.016,0.009l0.016,0.01l0.015,0.01l0.015,0.012
		l0.015,0.012l0.013,0.013l0.013,0.013l0.012,0.014l0.011,0.014l0.011,0.015l0.01,0.015l0.008,0.016l0.008,0.016l0.008,0.016
		l0.006,0.017l0.006,0.017l0.004,0.017l0.004,0.017l0.003,0.017l0.002,0.018l0.002,0.017v0.018v0.018l-0.001,0.017l-0.002,0.018
		l-0.002,0.017l-0.004,0.018l-0.005,0.017l-0.005,0.017l-0.006,0.017l-0.007,0.017l-0.008,0.016l-0.009,0.016l-0.01,0.016
		l-0.011,0.015L33.811,20.073z M39.674,17.015v0.735l-0.251,0.002l-0.246,0.007l-0.243,0.011l-0.237,0.017l-0.234,0.021
		l-0.228,0.025l-0.225,0.03l-0.219,0.035l-0.216,0.039l-0.211,0.044l-0.206,0.048l-0.202,0.053l-0.197,0.057l-0.193,0.062
		l-0.189,0.067l-0.185,0.07l-0.18,0.075l-0.176,0.08l-0.171,0.083l-0.167,0.089l-0.163,0.093l-0.159,0.097l-0.155,0.102l-0.15,0.106
		l-0.147,0.11l-0.142,0.115l-0.139,0.12l-0.134,0.123l-0.13,0.129l-0.127,0.133l-0.122,0.138l-0.119,0.142l-0.571-0.462l0.133-0.16
		l0.139-0.156l0.143-0.15L33.803,19l0.152-0.141l0.157-0.135l0.161-0.13l0.165-0.125l0.17-0.12l0.175-0.114l0.179-0.11l0.183-0.104
		l0.187-0.099l0.192-0.094l0.196-0.088l0.2-0.084l0.204-0.078l0.208-0.073l0.212-0.068l0.217-0.063l0.22-0.058l0.225-0.052
		l0.229-0.048l0.233-0.042l0.236-0.038l0.241-0.032l0.245-0.027l0.249-0.022l0.252-0.018l0.257-0.012l0.262-0.008L39.674,17.015z
		 M50.902,27.584l-0.699,0.224l-0.001-0.003l-0.203-0.627l-0.211-0.606l-0.219-0.586L49.34,25.42l-0.236-0.545l-0.244-0.524
		l-0.253-0.504l-0.26-0.484L48.078,22.9l-0.277-0.443l-0.286-0.422l-0.292-0.402l-0.301-0.382l-0.309-0.361l-0.316-0.341
		l-0.325-0.322l-0.332-0.301l-0.34-0.281l-0.348-0.262l-0.355-0.242l-0.364-0.222l-0.372-0.203l-0.38-0.183l-0.388-0.164
		l-0.397-0.145l-0.405-0.126l-0.414-0.106l-0.422-0.087l-0.432-0.068l-0.441-0.049l-0.449-0.029l-0.459-0.009v-0.735l0.49,0.011
		l0.483,0.031l0.473,0.052l0.466,0.073l0.457,0.094l0.448,0.115l0.44,0.137l0.431,0.157l0.422,0.178l0.413,0.2l0.403,0.22
		l0.395,0.241l0.385,0.262l0.375,0.282l0.366,0.303l0.356,0.323l0.347,0.344l0.338,0.363l0.328,0.384l0.318,0.404l0.309,0.424
		l0.299,0.444l0.29,0.464l0.281,0.483l0.271,0.504l0.263,0.523l0.253,0.543l0.244,0.563l0.235,0.583l0.226,0.602l0.217,0.622
		l0.207,0.642L50.902,27.584z M50.202,27.805l0.701-0.219l0.006,0.019l0.004,0.018l0.003,0.018l0.002,0.018l0.002,0.018v0.019v0.018
		l-0.002,0.018l-0.002,0.017l-0.003,0.018l-0.004,0.017l-0.004,0.017l-0.006,0.017l-0.006,0.016l-0.007,0.017l-0.008,0.015
		l-0.009,0.016l-0.009,0.015l-0.01,0.014l-0.01,0.014l-0.012,0.014l-0.012,0.013l-0.013,0.013l-0.013,0.011l-0.014,0.011
		l-0.015,0.011l-0.015,0.01l-0.015,0.009l-0.017,0.009l-0.017,0.007L50.68,28.04l-0.018,0.006l-0.018,0.006l-0.018,0.004
		l-0.018,0.003l-0.019,0.002l-0.018,0.002h-0.018h-0.018l-0.018-0.002L50.5,28.059l-0.018-0.003l-0.017-0.004l-0.018-0.004
		l-0.016-0.006l-0.017-0.006l-0.016-0.007l-0.016-0.008l-0.015-0.009l-0.015-0.009l-0.015-0.01l-0.014-0.01l-0.013-0.012
		l-0.013-0.012l-0.013-0.013l-0.012-0.013l-0.011-0.014l-0.011-0.015l-0.01-0.015l-0.009-0.015l-0.008-0.017l-0.008-0.017
		l-0.007-0.017L50.202,27.805z M52.948,45.463l0.696,0.232l-0.714-0.087l-0.066-0.778l-0.066-0.764l-0.069-0.749l-0.069-0.736
		l-0.071-0.721l-0.072-0.707l-0.073-0.693l-0.074-0.678l-0.076-0.664l-0.078-0.65l-0.078-0.635l-0.079-0.621l-0.082-0.607
		l-0.082-0.592l-0.083-0.578l-0.085-0.564l-0.086-0.55l-0.088-0.535l-0.088-0.521l-0.09-0.506l-0.091-0.492l-0.092-0.478
		l-0.094-0.463l-0.094-0.449l-0.096-0.434l-0.097-0.42l-0.099-0.406l-0.099-0.391l-0.101-0.376l-0.102-0.362l-0.103-0.348
		l-0.104-0.333l0.699-0.224l0.108,0.343l0.106,0.358l0.104,0.371l0.103,0.386l0.102,0.399l0.1,0.413l0.099,0.428l0.098,0.441
		l0.096,0.455l0.095,0.47l0.093,0.483l0.092,0.498l0.091,0.512l0.089,0.525l0.088,0.54l0.087,0.554l0.085,0.568l0.084,0.583
		l0.083,0.596l0.081,0.611l0.08,0.624l0.08,0.639l0.077,0.653l0.076,0.667l0.075,0.682l0.073,0.695l0.073,0.709l0.071,0.725
		l0.07,0.736l0.068,0.754l0.067,0.766l0.066,0.781L52.948,45.463z M52.93,45.609l0.732-0.06l0.001,0.018v0.02l-0.001,0.019
		l-0.002,0.018l-0.002,0.019l-0.004,0.018l-0.004,0.018l-0.005,0.018l-0.006,0.017l-0.007,0.017l-0.008,0.016l-0.008,0.016
		l-0.009,0.015l-0.01,0.015l-0.01,0.015l-0.011,0.014l-0.012,0.013l-0.012,0.014l-0.013,0.012l-0.014,0.011l-0.014,0.012
		l-0.014,0.01l-0.015,0.01l-0.016,0.008l-0.016,0.008l-0.016,0.008l-0.017,0.007l-0.018,0.005l-0.018,0.005l-0.018,0.004
		l-0.018,0.003l-0.019,0.002l-0.019,0.001h-0.018l-0.019-0.001l-0.018-0.001l-0.018-0.003l-0.018-0.003l-0.017-0.005l-0.018-0.005
		l-0.016-0.006l-0.017-0.008l-0.016-0.007l-0.016-0.009l-0.015-0.009l-0.014-0.009l-0.014-0.012l-0.014-0.011l-0.013-0.012
		l-0.013-0.012l-0.012-0.014l-0.011-0.013l-0.011-0.015l-0.01-0.015l-0.01-0.015l-0.009-0.017l-0.007-0.016l-0.008-0.016
		L52.949,45.7l-0.005-0.018l-0.005-0.018l-0.004-0.019l-0.003-0.018L52.93,45.609z M56.345,32.054l0.713,0.178h-0.001l-0.203,0.81
		l-0.198,0.784l-0.191,0.76L56.28,35.32l-0.179,0.709l-0.172,0.684l-0.166,0.658l-0.16,0.634l-0.154,0.608l-0.147,0.583
		l-0.141,0.559l-0.135,0.533l-0.128,0.507l-0.122,0.483l-0.116,0.458l-0.109,0.433l-0.104,0.407l-0.097,0.382l-0.091,0.357
		l-0.084,0.332l-0.078,0.307l-0.072,0.282l-0.066,0.257L53.9,44.724l-0.053,0.207L53.8,45.112l-0.041,0.157L53.725,45.4
		l-0.028,0.107l-0.022,0.082l-0.017,0.06l-0.014,0.047l-0.696-0.232l0.004-0.016l0.014-0.051l0.021-0.079l0.028-0.104l0.033-0.13
		l0.041-0.156l0.047-0.181l0.052-0.205l0.06-0.232l0.065-0.256l0.072-0.281l0.078-0.307l0.085-0.332l0.091-0.357l0.096-0.382
		l0.103-0.407l0.11-0.432l0.116-0.458l0.122-0.482l0.128-0.509l0.135-0.533l0.141-0.557l0.147-0.584l0.154-0.608l0.16-0.634
		l0.166-0.658l0.172-0.684l0.179-0.709l0.185-0.734l0.191-0.759l0.198-0.784L56.345,32.054L56.345,32.054z M57.057,32.232
		l-0.712-0.179l0.005-0.018l0.006-0.018L56.363,32l0.008-0.017l0.008-0.016l0.009-0.016l0.01-0.015l0.01-0.014l0.011-0.014
		l0.012-0.014l0.012-0.012l0.013-0.012l0.014-0.012l0.014-0.011l0.014-0.01l0.015-0.009l0.015-0.009l0.016-0.008l0.016-0.007
		l0.017-0.006l0.016-0.006l0.017-0.005l0.018-0.004l0.017-0.003l0.018-0.002l0.018-0.002h0.018h0.019l0.018,0.001l0.018,0.002
		l0.019,0.004l0.018,0.004l0.018,0.005l0.018,0.006l0.017,0.006l0.017,0.008l0.016,0.008l0.016,0.009l0.015,0.01l0.015,0.011
		l0.013,0.011l0.014,0.011l0.012,0.013l0.013,0.013l0.011,0.013l0.011,0.014l0.01,0.015l0.009,0.014l0.009,0.016l0.009,0.015
		l0.007,0.017l0.007,0.016l0.005,0.017l0.005,0.017l0.004,0.017l0.003,0.018l0.003,0.018l0.001,0.018l0.001,0.018l-0.001,0.018
		l-0.001,0.018l-0.002,0.019l-0.003,0.018L57.057,32.232z M66.256,17.015v0.735l-0.336,0.013l-0.331,0.039l-0.327,0.067
		l-0.324,0.093l-0.32,0.12l-0.318,0.147l-0.317,0.175l-0.313,0.203l-0.312,0.231l-0.31,0.26l-0.307,0.289l-0.306,0.319l-0.302,0.347
		l-0.3,0.377l-0.296,0.406l-0.293,0.436l-0.29,0.465l-0.286,0.495l-0.284,0.524l-0.279,0.553l-0.274,0.583l-0.272,0.612
		l-0.268,0.641l-0.265,0.671l-0.26,0.7l-0.256,0.729l-0.252,0.759l-0.248,0.787l-0.244,0.816l-0.24,0.846l-0.235,0.875l-0.231,0.904
		l-0.713-0.178l0.234-0.913l0.238-0.884l0.243-0.855l0.247-0.826l0.251-0.799l0.256-0.769l0.261-0.741l0.265-0.713l0.27-0.685
		l0.273-0.656l0.279-0.627l0.283-0.599l0.288-0.571l0.292-0.543l0.3-0.514l0.303-0.486l0.307-0.458l0.314-0.43l0.318-0.401
		l0.325-0.373l0.33-0.345l0.336-0.317l0.343-0.287l0.35-0.259l0.354-0.23l0.362-0.199l0.368-0.17l0.373-0.14l0.38-0.109l0.385-0.078
		l0.389-0.047L66.256,17.015z M69.976,18.598L69.439,19.1l-0.08-0.084l-0.082-0.082l-0.082-0.077l-0.084-0.076l-0.085-0.073
		l-0.086-0.07l-0.087-0.067l-0.088-0.064l-0.09-0.062l-0.091-0.059l-0.091-0.056L68.4,18.276l-0.095-0.052l-0.095-0.048
		l-0.097-0.046l-0.099-0.043l-0.1-0.041l-0.101-0.038l-0.103-0.035l-0.104-0.033l-0.104-0.03l-0.107-0.028l-0.106-0.025
		l-0.109-0.022l-0.11-0.02l-0.113-0.017l-0.113-0.015l-0.115-0.012l-0.116-0.009l-0.117-0.007l-0.12-0.004l-0.121-0.001v-0.735
		l0.137,0.002l0.136,0.004l0.137,0.007l0.133,0.012l0.133,0.013l0.132,0.017l0.129,0.02l0.129,0.023l0.129,0.026l0.126,0.03
		l0.125,0.032l0.123,0.036l0.121,0.039l0.121,0.042l0.119,0.045l0.118,0.048l0.116,0.051l0.115,0.055l0.112,0.057l0.112,0.061
		l0.11,0.063l0.108,0.067l0.107,0.07l0.105,0.073l0.104,0.076l0.102,0.078l0.102,0.082l0.099,0.085l0.097,0.088l0.097,0.091
		l0.094,0.094L69.976,18.598z M71.447,22.113h-0.734l-0.001-0.103l-0.004-0.102l-0.006-0.102l-0.01-0.102l-0.011-0.1l-0.013-0.099
		l-0.017-0.099l-0.019-0.099l-0.02-0.098l-0.024-0.097l-0.025-0.097l-0.028-0.096l-0.03-0.095l-0.034-0.095l-0.036-0.095
		l-0.037-0.094l-0.041-0.093l-0.043-0.093l-0.046-0.093l-0.048-0.091l-0.051-0.092l-0.053-0.091l-0.057-0.091l-0.059-0.09
		l-0.062-0.09l-0.062-0.089l-0.067-0.089l-0.068-0.089l-0.071-0.088l-0.074-0.088l-0.077-0.087l-0.08-0.086l0.536-0.502l0.09,0.097
		l0.086,0.098l0.084,0.099l0.081,0.1l0.078,0.1l0.076,0.102l0.073,0.102l0.07,0.104l0.067,0.103l0.065,0.106l0.061,0.106l0.06,0.106
		l0.057,0.108l0.053,0.108l0.051,0.109l0.049,0.11l0.045,0.111l0.041,0.111l0.04,0.112l0.036,0.113l0.033,0.115l0.03,0.114
		l0.028,0.115l0.023,0.116l0.022,0.116l0.019,0.118l0.017,0.118l0.013,0.119l0.01,0.118l0.008,0.12l0.004,0.12L71.447,22.113z
		 M65.522,29.319l-0.426-0.598l-0.002,0.001l0.353-0.256l0.341-0.254l0.329-0.251l0.317-0.248l0.307-0.245l0.295-0.241l0.283-0.24
		l0.272-0.235l0.26-0.233l0.249-0.23l0.238-0.227l0.227-0.223l0.215-0.221l0.203-0.217l0.192-0.214l0.18-0.211l0.168-0.207
		l0.158-0.204l0.146-0.2l0.134-0.197l0.123-0.193l0.112-0.189l0.1-0.186l0.09-0.181l0.078-0.178l0.067-0.173l0.056-0.17l0.045-0.165
		l0.036-0.161l0.023-0.157l0.016-0.153l0.005-0.149h0.734L71.44,22.31l-0.019,0.198l-0.032,0.2l-0.043,0.202l-0.057,0.202
		l-0.067,0.204l-0.08,0.206l-0.091,0.207l-0.102,0.209l-0.114,0.21l-0.125,0.211l-0.136,0.214l-0.147,0.216l-0.159,0.217
		l-0.169,0.22l-0.181,0.221l-0.191,0.224l-0.203,0.227l-0.214,0.228l-0.224,0.23l-0.236,0.233l-0.247,0.236l-0.258,0.238
		l-0.269,0.24l-0.281,0.243l-0.291,0.245l-0.302,0.248l-0.314,0.251l-0.324,0.253l-0.336,0.256l-0.347,0.258l-0.357,0.261
		L65.522,29.319z M65.095,28.722l0.43,0.596l-0.016,0.011l-0.016,0.009l-0.017,0.009l-0.017,0.008l-0.018,0.007l-0.017,0.007
		l-0.017,0.005l-0.018,0.004l-0.018,0.004l-0.018,0.002l-0.018,0.002l-0.019,0.001h-0.017h-0.018l-0.019-0.002l-0.017-0.002
		l-0.018-0.004l-0.018-0.004l-0.017-0.004l-0.017-0.006l-0.017-0.007l-0.017-0.007l-0.016-0.008l-0.015-0.009l-0.016-0.01
		l-0.015-0.01l-0.014-0.011l-0.015-0.012l-0.013-0.013l-0.013-0.014l-0.013-0.014l-0.011-0.015l-0.011-0.016l-0.01-0.015
		l-0.009-0.017l-0.008-0.016l-0.007-0.017l-0.007-0.017l-0.005-0.017l-0.004-0.018l-0.004-0.017l-0.004-0.018l-0.002-0.018v-0.017
		v-0.018v-0.018l0.002-0.017l0.003-0.018l0.004-0.017l0.003-0.017l0.005-0.017l0.006-0.017l0.006-0.016l0.008-0.016l0.008-0.016
		l0.01-0.016l0.01-0.015l0.01-0.015l0.011-0.014l0.013-0.013l0.013-0.014l0.014-0.012l0.015-0.012L65.095,28.722z M56.1,41.258
		l-0.689-0.252v-0.001l0.172-0.454l0.181-0.449l0.189-0.445l0.198-0.441l0.205-0.436l0.215-0.432l0.223-0.427l0.23-0.422
		l0.241-0.419l0.248-0.413l0.256-0.409l0.267-0.405l0.272-0.4l0.282-0.395l0.29-0.391l0.299-0.386l0.307-0.382l0.316-0.377
		l0.324-0.373l0.332-0.368l0.34-0.364l0.35-0.358l0.357-0.354l0.366-0.35l0.373-0.345l0.383-0.341l0.391-0.336l0.399-0.332
		l0.407-0.327l0.415-0.322l0.424-0.318l0.432-0.313l0.427,0.598L65.1,29.626l-0.415,0.31l-0.404,0.315l-0.398,0.319l-0.389,0.324
		l-0.383,0.328l-0.371,0.332l-0.365,0.336l-0.356,0.341l-0.348,0.345l-0.339,0.349l-0.332,0.353l-0.323,0.358l-0.315,0.363
		l-0.306,0.366l-0.298,0.371l-0.291,0.375l-0.281,0.38l-0.273,0.383l-0.266,0.388l-0.258,0.393l-0.249,0.396l-0.24,0.401
		l-0.232,0.406l-0.225,0.41l-0.216,0.414L57.017,39.1l-0.199,0.423l-0.192,0.428l-0.183,0.431l-0.176,0.437L56.1,41.258L56.1,41.258
		z M55.411,41.005l0.689,0.254l-0.007,0.018l-0.008,0.017l-0.008,0.016l-0.01,0.016l-0.01,0.015l-0.01,0.015l-0.012,0.014
		l-0.012,0.013l-0.012,0.013l-0.013,0.012l-0.014,0.011L55.97,41.43l-0.014,0.01l-0.015,0.009l-0.016,0.009l-0.016,0.007
		l-0.016,0.007l-0.016,0.007l-0.017,0.005l-0.017,0.005l-0.017,0.004l-0.018,0.002l-0.018,0.003l-0.017,0.001h-0.018h-0.019
		l-0.017-0.001L55.7,41.495l-0.018-0.003l-0.018-0.004l-0.018-0.005l-0.017-0.006l-0.018-0.007l-0.017-0.008l-0.017-0.009
		l-0.015-0.009l-0.016-0.01l-0.014-0.011l-0.014-0.011L55.504,41.4l-0.012-0.012l-0.012-0.013l-0.012-0.014l-0.01-0.014l-0.01-0.015
		l-0.009-0.015l-0.009-0.015l-0.008-0.016l-0.007-0.016l-0.006-0.017l-0.005-0.017l-0.005-0.017l-0.004-0.017l-0.003-0.017
		l-0.002-0.018l-0.001-0.018l-0.001-0.018l0.001-0.018l0.001-0.018l0.003-0.018l0.003-0.018l0.004-0.018l0.005-0.018L55.411,41.005z
		 M55.127,45.43l-0.73-0.08l0.016-0.138l0.016-0.14l0.018-0.138l0.019-0.138l0.019-0.139l0.021-0.138l0.022-0.138l0.023-0.138
		l0.024-0.137l0.025-0.137l0.026-0.137l0.027-0.138l0.028-0.136l0.029-0.136l0.03-0.138l0.031-0.135l0.032-0.136l0.033-0.136
		l0.035-0.136l0.035-0.135l0.037-0.135l0.037-0.134l0.038-0.136l0.04-0.134l0.04-0.134l0.042-0.134l0.042-0.134l0.044-0.134
		l0.044-0.132l0.046-0.134l0.047-0.133l0.048-0.133l0.689,0.252l-0.045,0.127l-0.045,0.128l-0.044,0.128l-0.043,0.129l-0.042,0.128
		l-0.041,0.128l-0.039,0.128l-0.04,0.129l-0.038,0.129l-0.036,0.131l-0.036,0.129l-0.035,0.13l-0.034,0.129l-0.033,0.13l-0.032,0.13
		l-0.031,0.131l-0.03,0.13l-0.028,0.13L55.4,43.712l-0.027,0.132l-0.026,0.131l-0.025,0.131l-0.024,0.131l-0.023,0.132l-0.022,0.134
		l-0.021,0.131l-0.02,0.132l-0.019,0.133l-0.018,0.133l-0.017,0.133l-0.016,0.133L55.127,45.43z M54.397,45.35l0.73,0.08
		l-0.002,0.018l-0.004,0.02l-0.004,0.018l-0.005,0.018l-0.006,0.017l-0.007,0.017l-0.007,0.018l-0.009,0.016l-0.009,0.016
		l-0.01,0.015l-0.01,0.014l-0.011,0.015l-0.012,0.013l-0.012,0.013l-0.013,0.012l-0.014,0.012l-0.014,0.011l-0.014,0.01
		l-0.015,0.009l-0.016,0.01l-0.015,0.008l-0.017,0.007l-0.016,0.006l-0.017,0.006l-0.018,0.005l-0.017,0.005l-0.018,0.002
		l-0.018,0.003l-0.018,0.001H54.76l-0.019-0.001l-0.018-0.001l-0.019-0.002l-0.019-0.005l-0.017-0.004L54.65,45.74l-0.017-0.006
		l-0.017-0.007L54.6,45.719l-0.016-0.008l-0.016-0.01l-0.015-0.01l-0.014-0.01l-0.014-0.011l-0.013-0.013l-0.013-0.013l-0.011-0.013
		l-0.012-0.014l-0.011-0.014l-0.01-0.015l-0.009-0.016l-0.009-0.015l-0.008-0.016l-0.007-0.017l-0.006-0.017l-0.006-0.018
		l-0.004-0.017l-0.004-0.017l-0.003-0.019l-0.002-0.018l-0.002-0.02v-0.018l0.001-0.02L54.397,45.35z M54.893,50.404h-0.734v-0.177
		l0.001-0.176l0.001-0.177l0.001-0.174l0.002-0.172l0.003-0.172l0.003-0.17l0.003-0.168l0.004-0.168l0.005-0.166l0.005-0.165
		l0.005-0.164l0.006-0.162l0.006-0.161l0.007-0.16l0.007-0.158l0.008-0.157l0.008-0.156l0.009-0.155l0.009-0.152l0.009-0.152
		l0.01-0.152l0.011-0.148l0.011-0.148l0.011-0.146l0.012-0.146l0.013-0.145l0.012-0.144l0.014-0.142l0.013-0.141l0.015-0.14
		l0.014-0.139l0.73,0.08l-0.014,0.135l-0.014,0.136l-0.014,0.139l-0.012,0.139l-0.013,0.14l-0.012,0.143l-0.012,0.143l-0.011,0.145
		l-0.011,0.146l-0.01,0.147l-0.01,0.147l-0.009,0.149l-0.009,0.15l-0.009,0.153l-0.008,0.153l-0.007,0.154l-0.008,0.156
		l-0.006,0.157l-0.006,0.159l-0.006,0.16l-0.005,0.162l-0.005,0.162l-0.004,0.163l-0.004,0.166l-0.004,0.166l-0.003,0.168
		l-0.002,0.169l-0.002,0.172l-0.002,0.172l-0.001,0.173l-0.001,0.174V50.404z M54.159,50.404h0.734v3.312h-0.734V50.404z
		 M55.73,58.724l-0.706,0.204l-0.053-0.185L54.92,58.56l-0.05-0.182l-0.048-0.182l-0.046-0.178l-0.045-0.178l-0.043-0.177
		l-0.041-0.175l-0.04-0.174l-0.038-0.172l-0.036-0.17l-0.035-0.169l-0.033-0.168l-0.031-0.166l-0.03-0.165l-0.028-0.164L54.35,55.98
		l-0.025-0.161l-0.023-0.159l-0.021-0.157l-0.019-0.156l-0.018-0.155l-0.016-0.154l-0.015-0.152l-0.012-0.15l-0.012-0.148
		l-0.009-0.149l-0.008-0.146l-0.006-0.146L54.162,54l-0.002-0.142l-0.001-0.142h0.734l0.001,0.133l0.002,0.134l0.004,0.135
		l0.006,0.138l0.007,0.139l0.009,0.14l0.011,0.142l0.012,0.144l0.013,0.146l0.016,0.146l0.017,0.148l0.019,0.149l0.02,0.151
		l0.022,0.153l0.023,0.153l0.026,0.156l0.027,0.157l0.028,0.159l0.03,0.159l0.032,0.162l0.034,0.164l0.035,0.164l0.037,0.167
		l0.038,0.169l0.04,0.169l0.042,0.171l0.044,0.174l0.045,0.175l0.046,0.175l0.049,0.177l0.05,0.18L55.73,58.724z M55.024,58.928
		l0.706-0.204l0.005,0.018l0.003,0.019l0.003,0.019l0.002,0.019l0.001,0.018v0.018l-0.001,0.019l-0.001,0.018l-0.003,0.019
		l-0.003,0.017l-0.004,0.018l-0.005,0.017l-0.006,0.017l-0.007,0.017l-0.007,0.016l-0.008,0.017l-0.009,0.015l-0.01,0.015
		l-0.01,0.015l-0.011,0.014l-0.011,0.013l-0.013,0.014l-0.013,0.012l-0.013,0.012l-0.015,0.011l-0.014,0.011l-0.016,0.01
		l-0.016,0.009l-0.016,0.008l-0.017,0.007l-0.017,0.008l-0.019,0.006l-0.018,0.004l-0.018,0.004l-0.019,0.003l-0.018,0.002
		l-0.018,0.001H55.37l-0.018-0.001l-0.018-0.001l-0.018-0.003l-0.017-0.003l-0.017-0.005l-0.017-0.005l-0.017-0.005l-0.016-0.008
		l-0.016-0.007L55.2,59.148l-0.015-0.009l-0.015-0.01l-0.014-0.011l-0.014-0.011l-0.014-0.012l-0.012-0.012l-0.012-0.014
		l-0.012-0.014l-0.011-0.014l-0.01-0.015l-0.01-0.016l-0.009-0.017l-0.008-0.016l-0.007-0.017l-0.007-0.019L55.024,58.928z
		 M57.636,66.679h-0.734L56.9,66.606l-0.004-0.087l-0.009-0.098l-0.012-0.111l-0.016-0.121l-0.019-0.133l-0.024-0.146l-0.026-0.153
		l-0.031-0.166l-0.035-0.176l-0.038-0.187l-0.042-0.197l-0.045-0.208l-0.05-0.218l-0.053-0.228l-0.057-0.238l-0.06-0.249
		l-0.065-0.259l-0.068-0.271l-0.072-0.279l-0.075-0.291l-0.079-0.3l-0.083-0.31l-0.087-0.321l-0.09-0.331l-0.094-0.341l-0.098-0.351
		l-0.101-0.362l-0.105-0.371l-0.109-0.383l-0.112-0.393l-0.117-0.401l0.706-0.204l0.116,0.403l0.113,0.394l0.109,0.383l0.106,0.373
		l0.102,0.363l0.098,0.353l0.094,0.344l0.091,0.333l0.087,0.321l0.084,0.313l0.079,0.302l0.076,0.293l0.073,0.282l0.068,0.271
		l0.065,0.264l0.061,0.252l0.059,0.242l0.054,0.231l0.05,0.222l0.047,0.213l0.044,0.202l0.038,0.192l0.036,0.183l0.032,0.174
		l0.029,0.162l0.023,0.153l0.022,0.146l0.017,0.135l0.015,0.127l0.01,0.117l0.006,0.109L57.636,66.679z M56.036,71.174l-0.561-0.474
		l0.087-0.106l0.086-0.109l0.083-0.108l0.079-0.11l0.077-0.112l0.073-0.112l0.072-0.113l0.068-0.115l0.065-0.116l0.063-0.117
		l0.06-0.118l0.057-0.119l0.054-0.121l0.051-0.123l0.049-0.123l0.046-0.124l0.043-0.126l0.04-0.127l0.038-0.128l0.035-0.13
		l0.032-0.131l0.029-0.133l0.026-0.134l0.024-0.135l0.021-0.136l0.018-0.139l0.016-0.139l0.013-0.14l0.009-0.143l0.007-0.143
		l0.005-0.146l0.001-0.146h0.734l-0.001,0.16l-0.005,0.159l-0.008,0.157l-0.011,0.157l-0.014,0.156l-0.018,0.153l-0.021,0.153
		l-0.022,0.152l-0.027,0.149l-0.029,0.149l-0.032,0.149l-0.036,0.146l-0.039,0.146l-0.042,0.144l-0.046,0.143l-0.049,0.143
		l-0.052,0.141l-0.055,0.139l-0.058,0.137l-0.062,0.137l-0.064,0.135l-0.067,0.134l-0.071,0.132l-0.074,0.131l-0.076,0.129
		l-0.08,0.128l-0.083,0.126l-0.086,0.125l-0.089,0.123l-0.092,0.122l-0.095,0.121L56.036,71.174z M52.161,73.102v-0.734l0.119-0.002
		l0.118-0.005l0.118-0.008l0.115-0.011l0.115-0.016l0.114-0.017l0.112-0.021l0.111-0.023l0.11-0.027l0.109-0.031l0.108-0.032
		l0.107-0.037l0.106-0.04l0.105-0.044l0.105-0.046l0.103-0.051l0.102-0.053l0.101-0.056l0.101-0.061l0.1-0.062l0.099-0.066
		l0.098-0.069l0.098-0.074l0.097-0.076l0.095-0.08l0.095-0.083l0.094-0.088l0.094-0.09l0.092-0.094l0.092-0.098l0.09-0.102
		l0.091-0.105l0.561,0.475l-0.1,0.115l-0.101,0.113l-0.104,0.11l-0.104,0.105l-0.106,0.104l-0.107,0.099l-0.109,0.096l-0.11,0.093
		l-0.111,0.088l-0.113,0.085l-0.115,0.081l-0.115,0.078l-0.117,0.073l-0.119,0.07l-0.119,0.066l-0.122,0.062l-0.123,0.06
		l-0.123,0.055l-0.125,0.052l-0.127,0.048l-0.127,0.044l-0.129,0.04l-0.13,0.036l-0.131,0.032l-0.133,0.029l-0.133,0.024
		l-0.134,0.021l-0.136,0.017l-0.137,0.014l-0.137,0.01L52.301,73.1L52.161,73.102z M48.507,70.966l0.591-0.437l0.088,0.117
		l0.088,0.112l0.089,0.108l0.089,0.104l0.09,0.1l0.09,0.098l0.092,0.093l0.091,0.089l0.091,0.085l0.093,0.081l0.093,0.077
		l0.093,0.072l0.093,0.069l0.095,0.066l0.094,0.062l0.095,0.059l0.096,0.055l0.095,0.05l0.097,0.047l0.097,0.044l0.098,0.04
		l0.097,0.037l0.098,0.033l0.1,0.029l0.1,0.025l0.1,0.022l0.101,0.019l0.102,0.017l0.104,0.012l0.103,0.009l0.105,0.005l0.106,0.002
		v0.734l-0.13-0.002l-0.129-0.006l-0.129-0.012l-0.127-0.015l-0.127-0.019l-0.126-0.024l-0.126-0.028l-0.124-0.031l-0.123-0.037
		l-0.123-0.041l-0.121-0.045l-0.119-0.049l-0.119-0.055l-0.118-0.057l-0.117-0.062l-0.115-0.065l-0.114-0.07l-0.113-0.074
		l-0.111-0.077l-0.111-0.081l-0.109-0.087l-0.108-0.09l-0.106-0.094l-0.106-0.097l-0.105-0.103l-0.103-0.104L49,71.568l-0.101-0.112
		L48.8,71.339l-0.099-0.121l-0.097-0.124L48.507,70.966z M49.098,70.53l-0.591,0.437l-0.01-0.016l-0.01-0.016l-0.009-0.016
		l-0.009-0.018l-0.007-0.017l-0.006-0.017l-0.006-0.018l-0.004-0.017l-0.004-0.018l-0.003-0.018l-0.002-0.019l-0.001-0.017v-0.019
		v-0.017l0.002-0.018l0.002-0.019l0.003-0.017l0.004-0.018l0.004-0.017l0.006-0.018l0.006-0.017l0.007-0.016l0.008-0.017
		l0.009-0.015l0.01-0.016l0.01-0.015l0.011-0.014l0.012-0.014l0.012-0.015l0.014-0.012l0.014-0.013l0.015-0.012l0.015-0.011
		l0.016-0.01l0.016-0.009l0.017-0.009l0.016-0.007l0.017-0.007l0.017-0.005l0.018-0.005l0.017-0.003l0.018-0.003l0.018-0.002
		l0.017-0.002h0.018l0.017,0.001l0.018,0.001l0.017,0.002l0.018,0.003l0.017,0.004l0.017,0.005l0.017,0.005l0.016,0.007l0.017,0.007
		l0.015,0.009l0.016,0.008l0.015,0.01l0.015,0.01l0.014,0.012l0.014,0.012l0.013,0.013l0.013,0.014l0.012,0.014L49.098,70.53z
		 M46.969,66.679h0.734l0.002,0.122l0.004,0.122l0.006,0.121l0.01,0.121l0.012,0.121l0.015,0.121l0.017,0.121l0.02,0.121
		l0.023,0.121l0.026,0.12l0.028,0.121l0.031,0.12l0.034,0.121l0.036,0.118l0.039,0.121l0.042,0.12l0.045,0.12l0.048,0.12l0.05,0.12
		l0.053,0.12l0.055,0.12l0.059,0.119l0.061,0.12l0.064,0.119l0.067,0.12l0.07,0.12l0.072,0.119l0.076,0.12l0.078,0.12l0.081,0.119
		l0.084,0.12l0.087,0.119l-0.591,0.437l-0.093-0.129l-0.091-0.13l-0.088-0.13l-0.085-0.13l-0.082-0.13l-0.079-0.131l-0.076-0.131
		l-0.074-0.131l-0.07-0.132l-0.068-0.133l-0.065-0.132l-0.061-0.133l-0.059-0.133L47.46,69.13l-0.053-0.135l-0.05-0.134
		l-0.046-0.134l-0.044-0.135l-0.041-0.136l-0.038-0.135l-0.035-0.136l-0.032-0.136l-0.029-0.137l-0.026-0.137l-0.022-0.136
		l-0.02-0.137l-0.017-0.138l-0.013-0.137l-0.011-0.138l-0.008-0.139l-0.004-0.138L46.969,66.679z M50.201,55.221l0.704,0.208
		l-0.198,0.67l-0.192,0.648l-0.185,0.63l-0.179,0.608l-0.173,0.589l-0.166,0.568l-0.16,0.547l-0.154,0.528l-0.147,0.507
		l-0.142,0.487l-0.135,0.466l-0.128,0.445l-0.123,0.426l-0.116,0.405l-0.11,0.386l-0.103,0.364l-0.098,0.344l-0.091,0.323
		l-0.084,0.304l-0.078,0.282l-0.073,0.264l-0.065,0.242l-0.059,0.221l-0.054,0.201l-0.046,0.18l-0.04,0.16l-0.034,0.138
		l-0.028,0.116l-0.02,0.095l-0.014,0.07l-0.006,0.041l-0.001-0.006h-0.734l0.006-0.085l0.012-0.079l0.018-0.091l0.023-0.107
		l0.03-0.125l0.035-0.145l0.041-0.164l0.048-0.185l0.054-0.203l0.06-0.224l0.066-0.245l0.073-0.264l0.078-0.284l0.086-0.305
		l0.09-0.325l0.098-0.345l0.104-0.365l0.11-0.386l0.117-0.406l0.122-0.427l0.129-0.446l0.135-0.467l0.141-0.487l0.148-0.508
		l0.154-0.527l0.16-0.549l0.167-0.568l0.173-0.589l0.179-0.608l0.185-0.63l0.192-0.649L50.201,55.221L50.201,55.221L50.201,55.221z
		 M50.905,55.429l-0.704-0.208l0.005-0.019l0.007-0.018l0.008-0.017l0.008-0.017l0.009-0.016l0.009-0.016l0.011-0.015l0.011-0.014
		l0.011-0.015l0.013-0.013l0.013-0.012l0.013-0.011l0.014-0.012l0.014-0.01l0.015-0.01l0.015-0.009l0.016-0.009l0.016-0.007
		l0.017-0.007l0.016-0.005l0.017-0.005l0.018-0.005l0.017-0.003l0.018-0.002l0.018-0.003l0.017-0.001l0.019,0.001l0.018,0.002
		l0.018,0.002l0.018,0.003l0.019,0.004l0.018,0.004l0.018,0.006l0.017,0.007l0.017,0.007l0.017,0.01l0.015,0.009l0.016,0.009
		l0.014,0.01l0.015,0.011l0.013,0.013l0.013,0.013l0.012,0.012l0.012,0.015l0.011,0.014l0.01,0.014l0.009,0.016l0.009,0.015
		l0.008,0.016l0.007,0.017l0.007,0.016l0.006,0.018l0.005,0.017l0.004,0.017l0.003,0.019l0.003,0.017l0.001,0.019l0.001,0.018v0.02
		l-0.002,0.018l-0.002,0.018l-0.002,0.019l-0.004,0.019L50.905,55.429z M51.699,46.809h0.734l-0.001,0.22l-0.005,0.223l-0.007,0.226
		l-0.011,0.229l-0.013,0.233l-0.017,0.235l-0.02,0.238l-0.022,0.242L52.312,48.9l-0.029,0.248L52.251,49.4l-0.034,0.254
		l-0.037,0.258l-0.041,0.262l-0.043,0.265l-0.047,0.267L52,50.976l-0.052,0.273l-0.056,0.278l-0.058,0.28l-0.061,0.284l-0.064,0.287
		l-0.067,0.29l-0.07,0.294l-0.073,0.297l-0.076,0.3l-0.079,0.303l-0.082,0.308l-0.085,0.31l-0.088,0.313l-0.091,0.315l-0.093,0.32
		l-0.704-0.208l0.092-0.316l0.09-0.312l0.086-0.309l0.084-0.306l0.081-0.302l0.077-0.299l0.075-0.296l0.072-0.292l0.069-0.287
		l0.066-0.286l0.063-0.281l0.06-0.279l0.057-0.274l0.054-0.271l0.051-0.268l0.048-0.266l0.046-0.262l0.042-0.257l0.039-0.254
		l0.037-0.252l0.033-0.247l0.031-0.244l0.027-0.241l0.025-0.237l0.022-0.233l0.019-0.231l0.016-0.227l0.013-0.223l0.01-0.221
		l0.007-0.216l0.005-0.214L51.699,46.809z M48.64,34.713l0.609-0.41l0.197,0.3l0.191,0.306l0.184,0.312l0.177,0.318l0.172,0.324
		l0.165,0.329l0.159,0.336l0.153,0.342l0.146,0.347l0.14,0.353l0.134,0.359l0.128,0.365l0.121,0.37l0.114,0.377l0.109,0.382
		l0.103,0.388l0.096,0.394l0.09,0.4l0.083,0.406l0.078,0.411l0.071,0.417l0.065,0.423l0.059,0.428l0.052,0.435l0.046,0.44
		l0.04,0.446l0.034,0.452l0.028,0.458l0.022,0.463l0.015,0.469l0.009,0.475l0.003,0.481h-0.734l-0.003-0.471l-0.009-0.467
		l-0.015-0.459l-0.021-0.452l-0.027-0.447l-0.033-0.442l-0.04-0.435l-0.045-0.43l-0.051-0.423l-0.057-0.417l-0.063-0.41
		l-0.069-0.405l-0.075-0.4L51.11,40.76l-0.087-0.387l-0.093-0.381l-0.099-0.374l-0.105-0.37l-0.111-0.362l-0.116-0.357l-0.123-0.351
		l-0.128-0.344l-0.134-0.339l-0.141-0.333l-0.146-0.327l-0.152-0.321L49.518,36.2l-0.164-0.309l-0.17-0.303l-0.176-0.298
		l-0.181-0.291L48.64,34.713L48.64,34.713z M49.249,34.303l-0.609,0.411l-0.01-0.016l-0.009-0.017l-0.009-0.016l-0.007-0.017
		l-0.007-0.017l-0.005-0.017l-0.005-0.018l-0.004-0.017l-0.003-0.018l-0.002-0.018l-0.001-0.017l-0.001-0.018l0.001-0.018
		l0.001-0.017l0.002-0.018l0.003-0.017l0.004-0.017l0.005-0.017l0.005-0.017l0.006-0.017l0.007-0.016l0.008-0.016l0.008-0.015
		l0.01-0.016l0.01-0.014l0.011-0.015l0.011-0.013l0.013-0.014l0.013-0.013l0.014-0.012l0.015-0.011l0.015-0.011l0.016-0.011
		l0.016-0.009l0.017-0.008l0.017-0.008l0.017-0.006l0.017-0.006l0.017-0.004l0.018-0.004l0.017-0.003l0.018-0.002l0.018-0.001
		l0.017-0.001l0.018,0.001l0.018,0.001l0.017,0.002l0.018,0.003l0.017,0.004l0.017,0.004l0.017,0.006l0.016,0.006l0.016,0.007
		l0.016,0.008l0.016,0.008l0.015,0.01l0.015,0.01l0.014,0.011l0.014,0.011l0.014,0.013l0.012,0.013l0.012,0.014l0.012,0.015
		L49.249,34.303z M39.012,29.672v-0.735l0.409,0.005l0.403,0.016l0.397,0.026l0.392,0.036L41,29.067l0.381,0.058l0.376,0.068
		l0.37,0.078l0.364,0.089l0.359,0.1l0.353,0.11l0.347,0.121l0.342,0.131l0.336,0.142l0.33,0.153l0.324,0.163l0.318,0.174
		l0.313,0.184l0.306,0.194l0.3,0.205l0.295,0.216l0.288,0.226l0.282,0.236l0.276,0.246l0.27,0.258l0.264,0.267l0.258,0.277
		l0.252,0.288l0.245,0.298l0.24,0.308l0.233,0.318l0.227,0.328l-0.609,0.41l-0.216-0.312L48.202,34.1l-0.226-0.292l-0.232-0.282
		l-0.238-0.271l-0.242-0.261l-0.248-0.251l-0.254-0.241l-0.258-0.232l-0.264-0.22l-0.27-0.212l-0.275-0.201l-0.28-0.191
		l-0.286-0.182l-0.291-0.171l-0.297-0.162l-0.302-0.152l-0.308-0.143l-0.314-0.132l-0.319-0.123l-0.325-0.113l-0.331-0.103
		l-0.336-0.094l-0.342-0.084l-0.349-0.073l-0.354-0.065l-0.36-0.054l-0.366-0.044l-0.371-0.035l-0.378-0.025l-0.384-0.015
		L39.012,29.672z M36.141,30.081l-0.218-0.702l0.09-0.027l0.09-0.027l0.091-0.025l0.09-0.025l0.092-0.024l0.092-0.022l0.092-0.023
		l0.093-0.021l0.093-0.02l0.094-0.02l0.094-0.018l0.095-0.018l0.094-0.017l0.096-0.016l0.096-0.015l0.096-0.014l0.097-0.013
		l0.097-0.013l0.097-0.011l0.099-0.011l0.098-0.01l0.099-0.009l0.1-0.008l0.1-0.008l0.1-0.006l0.101-0.006l0.101-0.004l0.101-0.004
		l0.103-0.003l0.102-0.002l0.103-0.002h0.103v0.735h-0.097l-0.097,0.001l-0.096,0.002l-0.095,0.003l-0.096,0.003l-0.095,0.005
		l-0.094,0.005l-0.094,0.006l-0.093,0.007l-0.093,0.008l-0.093,0.008l-0.091,0.009l-0.091,0.01l-0.092,0.011l-0.09,0.012
		l-0.09,0.012l-0.09,0.014l-0.088,0.013l-0.089,0.015l-0.088,0.016l-0.088,0.016l-0.086,0.017l-0.087,0.018l-0.086,0.019
		l-0.086,0.02l-0.085,0.02l-0.085,0.021l-0.083,0.022l-0.085,0.023l-0.083,0.023l-0.083,0.025L36.141,30.081z M35.923,29.379
		l0.218,0.702l-0.018,0.005l-0.018,0.004l-0.019,0.003l-0.018,0.002l-0.018,0.002h-0.018h-0.018l-0.018-0.002l-0.018-0.002
		l-0.017-0.003l-0.017-0.004l-0.017-0.005l-0.017-0.005l-0.017-0.006l-0.016-0.007l-0.016-0.008l-0.015-0.009l-0.015-0.009
		l-0.014-0.01l-0.015-0.011l-0.013-0.011l-0.013-0.012l-0.013-0.013l-0.011-0.013l-0.012-0.014l-0.01-0.015l-0.01-0.015
		l-0.009-0.016l-0.009-0.016l-0.007-0.017l-0.007-0.017l-0.006-0.018l-0.005-0.018l-0.005-0.018l-0.003-0.019l-0.002-0.018
		l-0.001-0.018l-0.001-0.018l0.001-0.018l0.001-0.018l0.002-0.018l0.003-0.017l0.004-0.018l0.005-0.017l0.005-0.016l0.006-0.017
		l0.008-0.016l0.007-0.016l0.009-0.015l0.009-0.015l0.01-0.015l0.011-0.014l0.011-0.014l0.013-0.013l0.012-0.012l0.014-0.012
		l0.013-0.011l0.015-0.01l0.015-0.01l0.016-0.009l0.016-0.009l0.017-0.008l0.018-0.007L35.923,29.379z M32.612,31.13l0.692-0.245
		l-0.51-0.206l0.107-0.053l0.107-0.053l0.106-0.052l0.105-0.051l0.105-0.05l0.104-0.049l0.104-0.049l0.103-0.047l0.103-0.047
		l0.101-0.046l0.101-0.045l0.101-0.045l0.1-0.043l0.099-0.043l0.099-0.042l0.098-0.041l0.097-0.04l0.097-0.04l0.097-0.038
		l0.095-0.038l0.095-0.036l0.095-0.036l0.093-0.036l0.094-0.034l0.092-0.034l0.092-0.033l0.092-0.032l0.091-0.031l0.09-0.03
		l0.089-0.029l0.089-0.029l0.088-0.028l0.218,0.702l-0.083,0.026l-0.085,0.027l-0.086,0.028l-0.085,0.029l-0.087,0.03l-0.087,0.03
		l-0.087,0.031l-0.089,0.032l-0.089,0.033l-0.09,0.034l-0.091,0.035l-0.091,0.035l-0.092,0.037l-0.093,0.037l-0.093,0.038
		l-0.095,0.039l-0.094,0.039l-0.095,0.041l-0.097,0.041l-0.096,0.042l-0.097,0.043l-0.099,0.044l-0.098,0.044l-0.1,0.046l-0.1,0.046
		l-0.101,0.047l-0.101,0.048l-0.102,0.049l-0.103,0.05l-0.104,0.05l-0.104,0.052l-0.105,0.052L32.612,31.13z M32.794,30.679
		l0.328,0.657l-0.017,0.008l-0.017,0.007l-0.018,0.006l-0.017,0.005l-0.018,0.005l-0.018,0.003l-0.018,0.003l-0.018,0.001
		l-0.017,0.001h-0.018l-0.018-0.001l-0.017-0.002l-0.018-0.003l-0.017-0.003l-0.017-0.005l-0.017-0.005l-0.017-0.006l-0.016-0.007
		l-0.016-0.007l-0.016-0.008l-0.015-0.01l-0.014-0.009l-0.015-0.011l-0.014-0.011l-0.013-0.012l-0.013-0.013l-0.012-0.013
		l-0.012-0.014l-0.011-0.015l-0.01-0.015l-0.01-0.016l-0.008-0.017l-0.008-0.017l-0.007-0.017l-0.007-0.018l-0.005-0.018
		l-0.004-0.017l-0.003-0.018l-0.003-0.018l-0.001-0.018l-0.001-0.018v-0.017l0.001-0.018l0.002-0.018l0.003-0.017l0.003-0.018
		l0.005-0.017l0.005-0.017l0.006-0.016l0.007-0.017l0.007-0.015l0.008-0.016l0.009-0.015l0.01-0.015l0.011-0.014l0.011-0.014
		l0.012-0.013l0.013-0.014l0.013-0.012l0.014-0.011l0.015-0.011l0.015-0.011l0.016-0.009L32.794,30.679z"/>
	<path clip-path="url(#SVGID_2_)" fill="#005AA5" d="M32.958,31.007c-0.379-1.073-0.647-2.034-0.804-2.886
		c-0.158-0.851-0.237-1.782-0.237-2.792c0-2.333,0.536-4.163,1.608-5.487c1.325-1.641,3.374-2.46,6.149-2.46
		c5.108,0,8.735,3.438,10.879,10.313c1.135,3.533,2.049,9.494,2.743,17.883c0.063-0.189,1.198-4.667,3.405-13.436
		c2.46-9.84,5.644-14.76,9.554-14.76c1.388,0,2.539,0.488,3.453,1.466c0.915,0.978,1.372,2.066,1.372,3.265
		c0,1.829-1.924,4.131-5.771,6.907c-4.604,3.28-7.789,7.317-9.555,12.111c-0.504,1.388-0.835,2.808-0.993,4.258
		c-0.158,1.451-0.236,3.123-0.236,5.016v3.312c0,1.451,0.283,3.154,0.851,5.109c1.261,4.353,1.892,6.971,1.892,7.854
		c0,1.641-0.505,3.06-1.514,4.258s-2.207,1.798-3.594,1.798c-1.262,0-2.381-0.662-3.358-1.986c-0.978-1.325-1.467-2.681-1.467-4.069
		c0-0.315,1.073-4.1,3.217-11.354c1.009-3.406,1.513-6.244,1.513-8.517c0-5.108-1.041-9.208-3.122-12.3
		c-2.333-3.47-5.644-5.204-9.932-5.204c-1.072,0-2.065,0.142-2.98,0.425C35.118,30.014,34.093,30.439,32.958,31.007z"/>
	<path clip-path="url(#SVGID_2_)" fill="#898989" d="M75.463,23.168l0.181,0.141l10.14,7.922l0.18,0.141l-0.141,0.18L73.459,47.384
		l-0.141,0.18l-0.18-0.141l-10.14-7.922l-0.18-0.141l0.14-0.18l12.363-15.832L75.463,23.168z M75.542,23.81L63.46,39.281l9.78,7.642
		l12.081-15.471L75.542,23.81z"/>
	<polygon clip-path="url(#SVGID_2_)" fill="#898989" points="63.394,39.043 74.932,35.293 75.334,23.75 75.776,23.782 
		75.365,35.467 75.354,35.61 75.218,35.659 63.545,39.459 	"/>
</g>
</svg>
